<svg width="22" height="22" viewBox="0 0 22 22" fill="none" xmlns="http://www.w3.org/2000/svg">
<path d="M0 9.35C0 5.74921 6.51143e-08 3.94885 0.804908 2.62626C1.2553 1.8862 1.87323 1.26399 2.6082 0.810475C3.92169 -1.3113e-07 5.70968 0 9.28572 0H12.563C16.139 0 17.9271 -1.3113e-07 19.2405 0.810475C19.9755 1.26399 20.5934 1.8862 21.0438 2.62626C21.8487 3.94885 21.8487 5.74921 21.8487 9.35V12.65C21.8487 16.2508 21.8487 18.0512 21.0438 19.3737C20.5934 20.1138 19.9755 20.736 19.2405 21.1895C17.9271 22 16.139 22 12.563 22H9.28572C5.70968 22 3.92169 22 2.6082 21.1895C1.87323 20.736 1.2553 20.1138 0.804908 19.3737C6.51143e-08 18.0512 0 16.2508 0 12.65V9.35Z" fill="url(#paint0_linear_0_1)"/>
<path d="M0 9.35C0 5.74921 6.51143e-08 3.94885 0.804908 2.62626C1.2553 1.8862 1.87323 1.26399 2.6082 0.810475C3.92169 -1.3113e-07 5.70968 0 9.28572 0H12.563C16.139 0 17.9271 -1.3113e-07 19.2405 0.810475C19.9755 1.26399 20.5934 1.8862 21.0438 2.62626C21.8487 3.94885 21.8487 5.74921 21.8487 9.35V12.65C21.8487 16.2508 21.8487 18.0512 21.0438 19.3737C20.5934 20.1138 19.9755 20.736 19.2405 21.1895C17.9271 22 16.139 22 12.563 22H9.28572C5.70968 22 3.92169 22 2.6082 21.1895C1.87323 20.736 1.2553 20.1138 0.804908 19.3737C6.51143e-08 18.0512 0 16.2508 0 12.65V9.35Z" fill="url(#paint1_radial_0_1)"/>
<path d="M0 9.35C0 5.74921 6.51143e-08 3.94885 0.804908 2.62626C1.2553 1.8862 1.87323 1.26399 2.6082 0.810475C3.92169 -1.3113e-07 5.70968 0 9.28572 0H12.563C16.139 0 17.9271 -1.3113e-07 19.2405 0.810475C19.9755 1.26399 20.5934 1.8862 21.0438 2.62626C21.8487 3.94885 21.8487 5.74921 21.8487 9.35V12.65C21.8487 16.2508 21.8487 18.0512 21.0438 19.3737C20.5934 20.1138 19.9755 20.736 19.2405 21.1895C17.9271 22 16.139 22 12.563 22H9.28572C5.70968 22 3.92169 22 2.6082 21.1895C1.87323 20.736 1.2553 20.1138 0.804908 19.3737C6.51143e-08 18.0512 0 16.2508 0 12.65V9.35Z" fill="url(#paint2_radial_0_1)"/>
<path d="M0 9.35C0 5.74921 6.51143e-08 3.94885 0.804908 2.62626C1.2553 1.8862 1.87323 1.26399 2.6082 0.810475C3.92169 -1.3113e-07 5.70968 0 9.28572 0H12.563C16.139 0 17.9271 -1.3113e-07 19.2405 0.810475C19.9755 1.26399 20.5934 1.8862 21.0438 2.62626C21.8487 3.94885 21.8487 5.74921 21.8487 9.35V12.65C21.8487 16.2508 21.8487 18.0512 21.0438 19.3737C20.5934 20.1138 19.9755 20.736 19.2405 21.1895C17.9271 22 16.139 22 12.563 22H9.28572C5.70968 22 3.92169 22 2.6082 21.1895C1.87323 20.736 1.2553 20.1138 0.804908 19.3737C6.51143e-08 18.0512 0 16.2508 0 12.65V9.35Z" fill="url(#paint3_radial_0_1)"/>
<path d="M8.33814 17.05V11.6908L13.5098 17.05H16.3865V16.9109L10.4386 10.8096L15.9276 5.01949V4.94995H13.0325L8.33814 10.0663V4.94995H6.0083V17.05H8.33814Z" fill="white"/>
<defs>
<linearGradient id="paint0_linear_0_1" x1="10.9244" y1="0" x2="10.9244" y2="22" gradientUnits="userSpaceOnUse">
<stop stop-color="#1FD1FF"/>
<stop offset="1" stop-color="#1BB8FF"/>
</linearGradient>
<radialGradient id="paint1_radial_0_1" cx="0" cy="0" r="1" gradientUnits="userSpaceOnUse" gradientTransform="translate(1.04366 21.1664) rotate(-45.3532) scale(35.1607 35.6844)">
<stop stop-color="#232DE3"/>
<stop offset="1" stop-color="#232DE3" stop-opacity="0"/>
</radialGradient>
<radialGradient id="paint2_radial_0_1" cx="0" cy="0" r="1" gradientUnits="userSpaceOnUse" gradientTransform="translate(20.672 21.8744) rotate(-138.254) scale(21.9747 33.5323)">
<stop stop-color="#8B4DFF"/>
<stop offset="1" stop-color="#8B4DFF" stop-opacity="0"/>
</radialGradient>
<radialGradient id="paint3_radial_0_1" cx="0" cy="0" r="1" gradientUnits="userSpaceOnUse" gradientTransform="translate(10.7424 0.163165) rotate(90) scale(17.3451 41.7947)">
<stop stop-color="#24D5FF"/>
<stop offset="1" stop-color="#1BB8FF" stop-opacity="0"/>
</radialGradient>
</defs>
</svg>
