<svg width="54" height="54" viewBox="0 0 54 54" fill="none" xmlns="http://www.w3.org/2000/svg">
<circle cx="27" cy="27" r="27" fill="#35A4FD"/>
<path fill-rule="evenodd" clip-rule="evenodd" d="M21.1836 32.7959C20.9485 32.8019 20.7121 32.805 20.4746 32.805C18.5548 32.805 16.712 32.6056 15 32.2391C17.0741 37.3757 22.1072 41.0002 27.9869 41.0002C31.9752 41.0002 35.5741 39.3324 38.1241 36.6562C36.9505 36.8174 35.729 36.9025 34.4747 36.9025C29.0049 36.9025 24.1609 35.2838 21.1836 32.7959ZM24.84 13.3551C25.8515 13.1227 26.9048 13 27.9869 13C31.9752 13 35.574 14.6677 38.124 17.3439C36.9504 17.1827 35.729 17.0975 34.4747 17.0975C34.2372 17.0975 34.0008 17.1006 33.7657 17.1066C31.6112 15.3063 28.4792 13.9611 24.84 13.3551Z" fill="white"/>
<path fill-rule="evenodd" clip-rule="evenodd" d="M29.2222 15.2053C23.6565 16.2475 19.4444 21.1318 19.4444 27C19.4444 32.8681 23.6565 37.7525 29.2222 38.7946C28.502 38.9295 27.7592 39 26.9999 39C20.3725 39 14.9999 33.6274 14.9999 27C14.9999 20.3726 20.3725 15 26.9999 15C27.7592 15 28.502 15.0705 29.2222 15.2053Z" fill="white"/>
</svg>
