<svg width="114" height="114" viewBox="0 0 114 114" fill="none" xmlns="http://www.w3.org/2000/svg">
<circle cx="57" cy="57" r="57" fill="url(#paint0_linear_73_231)"/>
<path fill-rule="evenodd" clip-rule="evenodd" d="M44.7207 69.2358C44.2246 69.2486 43.7258 69.255 43.2245 69.255C39.1714 69.255 35.281 68.834 31.6666 68.0603C36.0453 78.9042 46.6708 86.5559 59.0834 86.5559C67.5031 86.5559 75.1006 83.0352 80.4838 77.3856C78.0064 77.7259 75.428 77.9056 72.7801 77.9056C61.2325 77.9056 51.0062 74.4881 44.7207 69.2358ZM52.4401 28.194C54.5754 27.7036 56.7991 27.4445 59.0834 27.4445C67.5033 27.4445 75.1009 30.9653 80.4841 36.6151C78.0067 36.2748 75.4281 36.0951 72.7801 36.0951C72.2788 36.0951 71.78 36.1015 71.2838 36.1143C66.7354 32.3135 60.1232 29.4735 52.4401 28.194Z" fill="white"/>
<path fill-rule="evenodd" clip-rule="evenodd" d="M57 31.6667C43.0088 31.6667 31.6667 43.0088 31.6667 57C31.6667 70.9912 43.0088 82.3334 57 82.3334C58.6029 82.3334 60.171 82.1845 61.6913 81.8999C49.9414 79.6998 41.0492 69.3884 41.0492 57C41.0492 44.6117 49.9414 34.3002 61.6913 32.1002C60.171 31.8155 58.6029 31.6667 57 31.6667Z" fill="white"/>
<defs>
<linearGradient id="paint0_linear_73_231" x1="-3.46208e-08" y1="57" x2="115.916" y2="57" gradientUnits="userSpaceOnUse">
<stop stop-color="#4A1C85"/>
<stop offset="1" stop-color="#35A4FD"/>
</linearGradient>
</defs>
</svg>
